<mxfile host="65bd71144e">
    <diagram id="2ZMGA_zgvllaOoWtJDXO" name="Page-1">
        <mxGraphModel dx="763" dy="790" grid="1" gridSize="10" guides="1" tooltips="1" connect="1" arrows="1" fold="1" page="1" pageScale="1" pageWidth="827" pageHeight="1169" math="0" shadow="0">
            <root>
                <mxCell id="0"/>
                <mxCell id="1" parent="0"/>
                <mxCell id="2" value="Host PC" style="rounded=1;whiteSpace=wrap;html=1;" parent="1" vertex="1">
                    <mxGeometry x="80" y="240" width="120" height="200" as="geometry"/>
                </mxCell>
                <mxCell id="3" value="MQTT/WebSockets" style="rounded=1;whiteSpace=wrap;html=1;" parent="1" vertex="1">
                    <mxGeometry x="354" y="240" width="120" height="200" as="geometry"/>
                </mxCell>
                <mxCell id="8" value="" style="endArrow=classic;html=1;exitX=1;exitY=0.25;exitDx=0;exitDy=0;entryX=0;entryY=0.25;entryDx=0;entryDy=0;" parent="1" source="2" target="3" edge="1">
                    <mxGeometry width="50" height="50" relative="1" as="geometry">
                        <mxPoint x="390" y="430" as="sourcePoint"/>
                        <mxPoint x="440" y="380" as="targetPoint"/>
                    </mxGeometry>
                </mxCell>
                <mxCell id="9" value="" style="endArrow=classic;html=1;exitX=1;exitY=0.5;exitDx=0;exitDy=0;entryX=0;entryY=0.5;entryDx=0;entryDy=0;" parent="1" source="2" target="3" edge="1">
                    <mxGeometry width="50" height="50" relative="1" as="geometry">
                        <mxPoint x="390" y="430" as="sourcePoint"/>
                        <mxPoint x="320" y="360" as="targetPoint"/>
                    </mxGeometry>
                </mxCell>
                <mxCell id="10" value="" style="endArrow=classic;html=1;exitX=1;exitY=0.75;exitDx=0;exitDy=0;entryX=0;entryY=0.75;entryDx=0;entryDy=0;" parent="1" source="2" target="3" edge="1">
                    <mxGeometry width="50" height="50" relative="1" as="geometry">
                        <mxPoint x="390" y="430" as="sourcePoint"/>
                        <mxPoint x="360" y="390" as="targetPoint"/>
                    </mxGeometry>
                </mxCell>
                <mxCell id="11" value="" style="rounded=1;whiteSpace=wrap;html=1;" parent="1" vertex="1">
                    <mxGeometry x="630" y="240" width="120" height="200" as="geometry"/>
                </mxCell>
                <mxCell id="12" value="" style="endArrow=classic;html=1;exitX=1;exitY=0.25;exitDx=0;exitDy=0;entryX=0;entryY=0.25;entryDx=0;entryDy=0;" parent="1" source="3" target="11" edge="1">
                    <mxGeometry width="50" height="50" relative="1" as="geometry">
                        <mxPoint x="510" y="310" as="sourcePoint"/>
                        <mxPoint x="590" y="320" as="targetPoint"/>
                    </mxGeometry>
                </mxCell>
                <mxCell id="13" value="" style="endArrow=classic;html=1;exitX=1;exitY=0.5;exitDx=0;exitDy=0;entryX=0;entryY=0.5;entryDx=0;entryDy=0;" parent="1" source="3" target="11" edge="1">
                    <mxGeometry width="50" height="50" relative="1" as="geometry">
                        <mxPoint x="530" y="360" as="sourcePoint"/>
                        <mxPoint x="600" y="360" as="targetPoint"/>
                    </mxGeometry>
                </mxCell>
                <mxCell id="14" value="" style="endArrow=classic;html=1;exitX=1;exitY=0.75;exitDx=0;exitDy=0;entryX=0;entryY=0.75;entryDx=0;entryDy=0;" parent="1" source="3" target="11" edge="1">
                    <mxGeometry width="50" height="50" relative="1" as="geometry">
                        <mxPoint x="510" y="410" as="sourcePoint"/>
                        <mxPoint x="590" y="380" as="targetPoint"/>
                    </mxGeometry>
                </mxCell>
                <mxCell id="15" value="Data&#10;(TLS/SSL)" style="text;strokeColor=none;fillColor=none;align=left;verticalAlign=middle;spacingLeft=4;spacingRight=4;overflow=hidden;points=[[0,0.5],[1,0.5]];portConstraint=eastwest;rotatable=0;" parent="1" vertex="1">
                    <mxGeometry x="260" y="240" width="80" height="30" as="geometry"/>
                </mxCell>
                <mxCell id="16" value="Data&#10;(TLS/SSL)" style="text;strokeColor=none;fillColor=none;align=left;verticalAlign=middle;spacingLeft=4;spacingRight=4;overflow=hidden;points=[[0,0.5],[1,0.5]];portConstraint=eastwest;rotatable=0;" parent="1" vertex="1">
                    <mxGeometry x="540" y="240" width="80" height="30" as="geometry"/>
                </mxCell>
                <mxCell id="20" value="Web GUI" style="text;html=1;strokeColor=none;fillColor=none;align=center;verticalAlign=middle;whiteSpace=wrap;rounded=0;" parent="1" vertex="1">
                    <mxGeometry x="495" y="500" width="60" height="30" as="geometry"/>
                </mxCell>
                <mxCell id="M2fEOvS_eN45KN7BCi1k-20" value="Subscriber" style="text;html=1;strokeColor=none;fillColor=none;align=center;verticalAlign=middle;whiteSpace=wrap;rounded=0;" parent="1" vertex="1">
                    <mxGeometry x="530" y="410" width="60" height="30" as="geometry"/>
                </mxCell>
                <mxCell id="M2fEOvS_eN45KN7BCi1k-21" value="Publisher" style="text;html=1;strokeColor=none;fillColor=none;align=center;verticalAlign=middle;whiteSpace=wrap;rounded=0;" parent="1" vertex="1">
                    <mxGeometry x="250" y="410" width="60" height="30" as="geometry"/>
                </mxCell>
                <mxCell id="PGqsPqKakoDKLPxKodx8-26" value="Push Alert Information" style="text;html=1;strokeColor=none;fillColor=none;align=center;verticalAlign=middle;whiteSpace=wrap;rounded=0;" parent="1" vertex="1">
                    <mxGeometry x="290" y="600" width="150" height="30" as="geometry"/>
                </mxCell>
                <mxCell id="dbEWMUEiVVREfNyyjwvP-20" value="Docker Image" style="rounded=1;whiteSpace=wrap;html=1;" parent="1" vertex="1">
                    <mxGeometry x="640" y="290" width="100" height="60" as="geometry"/>
                </mxCell>
                <mxCell id="dbEWMUEiVVREfNyyjwvP-21" value="Edge Device" style="text;html=1;strokeColor=none;fillColor=none;align=center;verticalAlign=middle;whiteSpace=wrap;rounded=0;" parent="1" vertex="1">
                    <mxGeometry x="650" y="250" width="80" height="30" as="geometry"/>
                </mxCell>
                <mxCell id="21" value="Grafana" style="rounded=1;whiteSpace=wrap;html=1;" parent="1" vertex="1">
                    <mxGeometry x="430" y="540" width="190" height="80" as="geometry"/>
                </mxCell>
                <mxCell id="22" value="" style="endArrow=classic;html=1;exitX=0.5;exitY=1;exitDx=0;exitDy=0;entryX=1;entryY=0.5;entryDx=0;entryDy=0;" parent="1" source="11" target="21" edge="1">
                    <mxGeometry width="50" height="50" relative="1" as="geometry">
                        <mxPoint x="370" y="530" as="sourcePoint"/>
                        <mxPoint x="420" y="480" as="targetPoint"/>
                        <Array as="points">
                            <mxPoint x="690" y="580"/>
                        </Array>
                    </mxGeometry>
                </mxCell>
                <mxCell id="24" value="" style="endArrow=classic;html=1;exitX=0;exitY=0.5;exitDx=0;exitDy=0;entryX=0.5;entryY=1;entryDx=0;entryDy=0;" parent="1" source="34" target="2" edge="1">
                    <mxGeometry width="50" height="50" relative="1" as="geometry">
                        <mxPoint x="370" y="530" as="sourcePoint"/>
                        <mxPoint x="420" y="480" as="targetPoint"/>
                        <Array as="points">
                            <mxPoint x="140" y="580"/>
                        </Array>
                    </mxGeometry>
                </mxCell>
                <mxCell id="kydvn_gU8QS304wV7mIw-24" value="&lt;span&gt;InfluxDB&lt;br&gt;(Database)&lt;br&gt;&lt;/span&gt;" style="shape=cylinder3;whiteSpace=wrap;html=1;boundedLbl=1;backgroundOutline=1;size=15;" parent="1" vertex="1">
                    <mxGeometry x="640" y="705" width="100" height="100" as="geometry"/>
                </mxCell>
                <mxCell id="kydvn_gU8QS304wV7mIw-25" value="" style="endArrow=classic;html=1;entryX=0.5;entryY=0;entryDx=0;entryDy=0;entryPerimeter=0;exitX=0.5;exitY=1;exitDx=0;exitDy=0;" parent="1" source="11" target="kydvn_gU8QS304wV7mIw-24" edge="1">
                    <mxGeometry width="50" height="50" relative="1" as="geometry">
                        <mxPoint x="700" y="480" as="sourcePoint"/>
                        <mxPoint x="440" y="480" as="targetPoint"/>
                    </mxGeometry>
                </mxCell>
                <mxCell id="26" value="data_utils.py" style="shape=callout;whiteSpace=wrap;html=1;perimeter=calloutPerimeter;" parent="1" vertex="1">
                    <mxGeometry x="85" y="150" width="120" height="80" as="geometry"/>
                </mxCell>
                <mxCell id="27" value="publisher.py" style="shape=callout;whiteSpace=wrap;html=1;perimeter=calloutPerimeter;" parent="1" vertex="1">
                    <mxGeometry x="380" y="150" width="120" height="80" as="geometry"/>
                </mxCell>
                <mxCell id="29" value="subscriber.py" style="shape=callout;whiteSpace=wrap;html=1;perimeter=calloutPerimeter;position2=0.5;" parent="1" vertex="1">
                    <mxGeometry x="670" y="150" width="120" height="80" as="geometry"/>
                </mxCell>
                <mxCell id="4czKS87a9Cf43ieIGzJS-30" value="View Data&lt;br&gt;(Test case)" style="rounded=1;whiteSpace=wrap;html=1;" parent="1" vertex="1">
                    <mxGeometry x="320" y="715" width="190" height="80" as="geometry"/>
                </mxCell>
                <mxCell id="4czKS87a9Cf43ieIGzJS-31" value="" style="endArrow=classic;html=1;entryX=1;entryY=0.5;entryDx=0;entryDy=0;exitX=0;exitY=0.5;exitDx=0;exitDy=0;exitPerimeter=0;" parent="1" source="kydvn_gU8QS304wV7mIw-24" target="4czKS87a9Cf43ieIGzJS-30" edge="1">
                    <mxGeometry width="50" height="50" relative="1" as="geometry">
                        <mxPoint x="390" y="650" as="sourcePoint"/>
                        <mxPoint x="440" y="600" as="targetPoint"/>
                    </mxGeometry>
                </mxCell>
                <mxCell id="4czKS87a9Cf43ieIGzJS-32" value="Viewdata.py" style="shape=callout;whiteSpace=wrap;html=1;perimeter=calloutPerimeter;position2=0.33;" parent="1" vertex="1">
                    <mxGeometry x="510" y="660" width="120" height="80" as="geometry"/>
                </mxCell>
                <mxCell id="4czKS87a9Cf43ieIGzJS-36" value="" style="endArrow=classic;html=1;entryX=0.25;entryY=1;entryDx=0;entryDy=0;exitX=0.016;exitY=0.6;exitDx=0;exitDy=0;exitPerimeter=0;" parent="1" source="4czKS87a9Cf43ieIGzJS-30" target="2" edge="1">
                    <mxGeometry width="50" height="50" relative="1" as="geometry">
                        <mxPoint x="270" y="780" as="sourcePoint"/>
                        <mxPoint x="140" y="580" as="targetPoint"/>
                        <Array as="points">
                            <mxPoint x="110" y="760"/>
                        </Array>
                    </mxGeometry>
                </mxCell>
                <mxCell id="BcAin68jMK9oQYjSz3jz-31" value="" style="endArrow=classic;html=1;exitX=0.5;exitY=1;exitDx=0;exitDy=0;entryX=0.875;entryY=0.5;entryDx=0;entryDy=0;exitPerimeter=0;entryPerimeter=0;" parent="1" source="kydvn_gU8QS304wV7mIw-24" target="BcAin68jMK9oQYjSz3jz-32" edge="1">
                    <mxGeometry width="50" height="50" relative="1" as="geometry">
                        <mxPoint x="711" y="810" as="sourcePoint"/>
                        <mxPoint x="510" y="930" as="targetPoint"/>
                        <Array as="points">
                            <mxPoint x="690" y="925"/>
                        </Array>
                    </mxGeometry>
                </mxCell>
                <mxCell id="BcAin68jMK9oQYjSz3jz-32" value="&lt;span&gt;ML Engine&lt;/span&gt;" style="ellipse;shape=cloud;whiteSpace=wrap;html=1;" parent="1" vertex="1">
                    <mxGeometry x="318" y="870" width="191" height="110" as="geometry"/>
                </mxCell>
                <mxCell id="BcAin68jMK9oQYjSz3jz-33" value="" style="endArrow=classic;html=1;exitX=0.16;exitY=0.55;exitDx=0;exitDy=0;exitPerimeter=0;" parent="1" source="BcAin68jMK9oQYjSz3jz-32" edge="1">
                    <mxGeometry width="50" height="50" relative="1" as="geometry">
                        <mxPoint x="590" y="740" as="sourcePoint"/>
                        <mxPoint x="160" y="931" as="targetPoint"/>
                    </mxGeometry>
                </mxCell>
                <mxCell id="33" value="&lt;ul&gt;&lt;li&gt;ADTK&lt;/li&gt;&lt;li&gt;LoudML&lt;/li&gt;&lt;li&gt;PyOD&lt;/li&gt;&lt;/ul&gt;" style="rounded=1;whiteSpace=wrap;html=1;" parent="1" vertex="1">
                    <mxGeometry x="354" y="990" width="140" height="60" as="geometry"/>
                </mxCell>
                <mxCell id="34" value="Webhook&amp;nbsp;&amp;nbsp;Listener" style="ellipse;whiteSpace=wrap;html=1;aspect=fixed;" vertex="1" parent="1">
                    <mxGeometry x="170" y="513" width="134" height="134" as="geometry"/>
                </mxCell>
                <mxCell id="35" value="" style="endArrow=classic;startArrow=classic;html=1;exitX=1;exitY=0.5;exitDx=0;exitDy=0;entryX=0;entryY=0.5;entryDx=0;entryDy=0;" edge="1" parent="1" source="34" target="21">
                    <mxGeometry width="50" height="50" relative="1" as="geometry">
                        <mxPoint x="430" y="530" as="sourcePoint"/>
                        <mxPoint x="480" y="480" as="targetPoint"/>
                    </mxGeometry>
                </mxCell>
            </root>
        </mxGraphModel>
    </diagram>
    <diagram id="0g_JLXBJ_e0gc3BHtDCc" name="Page-2">
        <mxGraphModel dx="1204" dy="790" grid="1" gridSize="10" guides="1" tooltips="1" connect="1" arrows="1" fold="1" page="1" pageScale="1" pageWidth="827" pageHeight="1169" math="0" shadow="0">
            <root>
                <mxCell id="3l5iCHlmxhtoalzx7ls--0"/>
                <mxCell id="3l5iCHlmxhtoalzx7ls--1" parent="3l5iCHlmxhtoalzx7ls--0"/>
                <mxCell id="EBnRmtupUCo6tGT2MsQT-0" value="Sensor_1" style="rounded=1;whiteSpace=wrap;html=1;" parent="3l5iCHlmxhtoalzx7ls--1" vertex="1">
                    <mxGeometry x="80" y="280" width="120" height="60" as="geometry"/>
                </mxCell>
                <mxCell id="EBnRmtupUCo6tGT2MsQT-1" value="Sensor_2" style="rounded=1;whiteSpace=wrap;html=1;" parent="3l5iCHlmxhtoalzx7ls--1" vertex="1">
                    <mxGeometry x="80" y="400" width="120" height="60" as="geometry"/>
                </mxCell>
                <mxCell id="EBnRmtupUCo6tGT2MsQT-2" value="Sensor_3" style="rounded=1;whiteSpace=wrap;html=1;" parent="3l5iCHlmxhtoalzx7ls--1" vertex="1">
                    <mxGeometry x="80" y="520" width="120" height="60" as="geometry"/>
                </mxCell>
                <mxCell id="EBnRmtupUCo6tGT2MsQT-4" value="&lt;h1&gt;Client&lt;/h1&gt;&lt;p&gt;Host PC&lt;/p&gt;&lt;p&gt;(Publisher)&lt;/p&gt;" style="text;html=1;strokeColor=none;fillColor=none;spacing=5;spacingTop=-20;whiteSpace=wrap;overflow=hidden;rounded=0;" parent="3l5iCHlmxhtoalzx7ls--1" vertex="1">
                    <mxGeometry x="90" y="170" width="110" height="100" as="geometry"/>
                </mxCell>
                <mxCell id="yJ2A7ShyCofNCU8arXDy-1" value="Topic" style="rounded=1;whiteSpace=wrap;html=1;" parent="3l5iCHlmxhtoalzx7ls--1" vertex="1">
                    <mxGeometry x="350" y="280" width="120" height="300" as="geometry"/>
                </mxCell>
                <mxCell id="yJ2A7ShyCofNCU8arXDy-2" value="&lt;h1&gt;Client&lt;/h1&gt;&lt;p&gt;&lt;span style=&quot;text-align: center&quot;&gt;Edge Device&lt;/span&gt;&lt;br&gt;&lt;/p&gt;&lt;p&gt;(Subscriber)&lt;/p&gt;" style="text;html=1;strokeColor=none;fillColor=none;spacing=5;spacingTop=-20;whiteSpace=wrap;overflow=hidden;rounded=0;" parent="3l5iCHlmxhtoalzx7ls--1" vertex="1">
                    <mxGeometry x="580" y="170" width="110" height="100" as="geometry"/>
                </mxCell>
                <mxCell id="Ri3lqiKgaHkcqVc1ey1T-2" value="&lt;h1&gt;Mosquitto&lt;/h1&gt;&lt;p&gt;(Broker)&lt;/p&gt;" style="text;html=1;strokeColor=none;fillColor=none;spacing=5;spacingTop=-20;whiteSpace=wrap;overflow=hidden;rounded=0;" parent="3l5iCHlmxhtoalzx7ls--1" vertex="1">
                    <mxGeometry x="350" y="190" width="120" height="80" as="geometry"/>
                </mxCell>
                <mxCell id="Ri3lqiKgaHkcqVc1ey1T-3" value="" style="endArrow=classic;html=1;exitX=1;exitY=0.5;exitDx=0;exitDy=0;entryX=0;entryY=0.25;entryDx=0;entryDy=0;" parent="3l5iCHlmxhtoalzx7ls--1" source="EBnRmtupUCo6tGT2MsQT-0" target="yJ2A7ShyCofNCU8arXDy-1" edge="1">
                    <mxGeometry width="50" height="50" relative="1" as="geometry">
                        <mxPoint x="390" y="430" as="sourcePoint"/>
                        <mxPoint x="440" y="380" as="targetPoint"/>
                    </mxGeometry>
                </mxCell>
                <mxCell id="Ri3lqiKgaHkcqVc1ey1T-4" value="" style="endArrow=classic;html=1;exitX=1;exitY=0.5;exitDx=0;exitDy=0;entryX=0;entryY=0.5;entryDx=0;entryDy=0;" parent="3l5iCHlmxhtoalzx7ls--1" target="yJ2A7ShyCofNCU8arXDy-1" edge="1">
                    <mxGeometry width="50" height="50" relative="1" as="geometry">
                        <mxPoint x="200" y="430" as="sourcePoint"/>
                        <mxPoint x="350" y="475" as="targetPoint"/>
                    </mxGeometry>
                </mxCell>
                <mxCell id="Ri3lqiKgaHkcqVc1ey1T-5" value="" style="endArrow=classic;html=1;exitX=1;exitY=0.5;exitDx=0;exitDy=0;entryX=0;entryY=0.75;entryDx=0;entryDy=0;" parent="3l5iCHlmxhtoalzx7ls--1" target="yJ2A7ShyCofNCU8arXDy-1" edge="1">
                    <mxGeometry width="50" height="50" relative="1" as="geometry">
                        <mxPoint x="200" y="550" as="sourcePoint"/>
                        <mxPoint x="350" y="595" as="targetPoint"/>
                    </mxGeometry>
                </mxCell>
            </root>
        </mxGraphModel>
    </diagram>
    <diagram id="GPuiSWBGT5crV1qSfzQM" name="Page-4">
        <mxGraphModel dx="1204" dy="790" grid="1" gridSize="10" guides="1" tooltips="1" connect="1" arrows="1" fold="1" page="1" pageScale="1" pageWidth="827" pageHeight="1169" math="0" shadow="0">
            <root>
                <mxCell id="y_T41QjO8jMa_wzAPfSL-0"/>
                <mxCell id="y_T41QjO8jMa_wzAPfSL-1" parent="y_T41QjO8jMa_wzAPfSL-0"/>
                <mxCell id="9NEQKvWFKzghdhBFGhbO-0" value="" style="rounded=0;whiteSpace=wrap;html=1;" parent="y_T41QjO8jMa_wzAPfSL-1" vertex="1">
                    <mxGeometry x="70" y="70" width="470" height="230" as="geometry"/>
                </mxCell>
                <mxCell id="9NEQKvWFKzghdhBFGhbO-1" value="Broker" style="rounded=1;whiteSpace=wrap;html=1;" parent="y_T41QjO8jMa_wzAPfSL-1" vertex="1">
                    <mxGeometry x="90" y="135" width="190" height="105" as="geometry"/>
                </mxCell>
                <mxCell id="9NEQKvWFKzghdhBFGhbO-4" value="InfluxDB" style="rounded=1;whiteSpace=wrap;html=1;" parent="y_T41QjO8jMa_wzAPfSL-1" vertex="1">
                    <mxGeometry x="320" y="132.5" width="190" height="105" as="geometry"/>
                </mxCell>
                <mxCell id="9NEQKvWFKzghdhBFGhbO-5" value="" style="rounded=0;whiteSpace=wrap;html=1;" parent="y_T41QjO8jMa_wzAPfSL-1" vertex="1">
                    <mxGeometry x="70" y="450" width="470" height="230" as="geometry"/>
                </mxCell>
                <mxCell id="9NEQKvWFKzghdhBFGhbO-6" value="Publish" style="rounded=1;whiteSpace=wrap;html=1;" parent="y_T41QjO8jMa_wzAPfSL-1" vertex="1">
                    <mxGeometry x="90" y="512.5" width="190" height="105" as="geometry"/>
                </mxCell>
                <mxCell id="9NEQKvWFKzghdhBFGhbO-7" value="Subscribe" style="rounded=1;whiteSpace=wrap;html=1;" parent="y_T41QjO8jMa_wzAPfSL-1" vertex="1">
                    <mxGeometry x="320" y="510" width="190" height="105" as="geometry"/>
                </mxCell>
                <mxCell id="9NEQKvWFKzghdhBFGhbO-8" value="" style="endArrow=classic;html=1;entryX=0.5;entryY=1;entryDx=0;entryDy=0;" parent="y_T41QjO8jMa_wzAPfSL-1" source="9NEQKvWFKzghdhBFGhbO-6" target="9NEQKvWFKzghdhBFGhbO-1" edge="1">
                    <mxGeometry width="50" height="50" relative="1" as="geometry">
                        <mxPoint x="210" y="430" as="sourcePoint"/>
                        <mxPoint x="260" y="380" as="targetPoint"/>
                    </mxGeometry>
                </mxCell>
                <mxCell id="9NEQKvWFKzghdhBFGhbO-9" value="" style="endArrow=classic;html=1;exitX=0.75;exitY=1;exitDx=0;exitDy=0;entryX=0.25;entryY=0;entryDx=0;entryDy=0;" parent="y_T41QjO8jMa_wzAPfSL-1" source="9NEQKvWFKzghdhBFGhbO-1" target="9NEQKvWFKzghdhBFGhbO-7" edge="1">
                    <mxGeometry width="50" height="50" relative="1" as="geometry">
                        <mxPoint x="210" y="430" as="sourcePoint"/>
                        <mxPoint x="260" y="380" as="targetPoint"/>
                    </mxGeometry>
                </mxCell>
                <mxCell id="9NEQKvWFKzghdhBFGhbO-10" value="" style="endArrow=classic;html=1;exitX=0.5;exitY=0;exitDx=0;exitDy=0;entryX=0.5;entryY=1;entryDx=0;entryDy=0;" parent="y_T41QjO8jMa_wzAPfSL-1" source="9NEQKvWFKzghdhBFGhbO-7" target="9NEQKvWFKzghdhBFGhbO-4" edge="1">
                    <mxGeometry width="50" height="50" relative="1" as="geometry">
                        <mxPoint x="210" y="430" as="sourcePoint"/>
                        <mxPoint x="260" y="380" as="targetPoint"/>
                    </mxGeometry>
                </mxCell>
                <mxCell id="jDyGdw4AVBvMHcD9XDGC-0" value="Host PC" style="text;html=1;strokeColor=none;fillColor=none;align=center;verticalAlign=middle;whiteSpace=wrap;rounded=0;" vertex="1" parent="y_T41QjO8jMa_wzAPfSL-1">
                    <mxGeometry x="275" y="630" width="60" height="30" as="geometry"/>
                </mxCell>
                <mxCell id="jDyGdw4AVBvMHcD9XDGC-3" value="" style="endArrow=none;dashed=1;html=1;exitX=1;exitY=0.5;exitDx=0;exitDy=0;" edge="1" parent="y_T41QjO8jMa_wzAPfSL-1" source="9NEQKvWFKzghdhBFGhbO-4">
                    <mxGeometry width="50" height="50" relative="1" as="geometry">
                        <mxPoint x="200" y="400" as="sourcePoint"/>
                        <mxPoint x="580" y="185" as="targetPoint"/>
                    </mxGeometry>
                </mxCell>
                <mxCell id="jDyGdw4AVBvMHcD9XDGC-4" value="&lt;h1&gt;DB : Sensor&lt;/h1&gt;&lt;p&gt;measurement : Temperature&lt;/p&gt;&lt;p&gt;point : time、value&lt;/p&gt;" style="text;html=1;strokeColor=none;fillColor=none;spacing=5;spacingTop=-20;whiteSpace=wrap;overflow=hidden;rounded=0;" vertex="1" parent="y_T41QjO8jMa_wzAPfSL-1">
                    <mxGeometry x="590" y="132.5" width="190" height="120" as="geometry"/>
                </mxCell>
                <mxCell id="jDyGdw4AVBvMHcD9XDGC-5" value="Publish&lt;br&gt;&quot;msg_v1.0/info&quot;" style="text;html=1;strokeColor=none;fillColor=none;align=center;verticalAlign=middle;whiteSpace=wrap;rounded=0;" vertex="1" parent="y_T41QjO8jMa_wzAPfSL-1">
                    <mxGeometry x="40" y="410" width="130" height="30" as="geometry"/>
                </mxCell>
                <mxCell id="jDyGdw4AVBvMHcD9XDGC-6" value="Subscibe&lt;br&gt;&quot;msg_v1.0/info&quot;" style="text;html=1;strokeColor=none;fillColor=none;align=center;verticalAlign=middle;whiteSpace=wrap;rounded=0;" vertex="1" parent="y_T41QjO8jMa_wzAPfSL-1">
                    <mxGeometry x="284" y="320" width="130" height="30" as="geometry"/>
                </mxCell>
            </root>
        </mxGraphModel>
    </diagram>
    <diagram id="irKjA3SyIMc5FSEiYrIu" name="Page-3">
        <mxGraphModel dx="1204" dy="790" grid="1" gridSize="10" guides="1" tooltips="1" connect="1" arrows="1" fold="1" page="1" pageScale="1" pageWidth="827" pageHeight="1169" math="0" shadow="0">
            <root>
                <mxCell id="F2EN1scPjV8PA4508RRB-0"/>
                <mxCell id="F2EN1scPjV8PA4508RRB-1" parent="F2EN1scPjV8PA4508RRB-0"/>
                <mxCell id="F2EN1scPjV8PA4508RRB-2" value="&lt;h1&gt;SGPIO BP MCU TEST Step&lt;/h1&gt;&lt;p&gt;Lorem ipsum dolor sit amet, consectetur adipisicing elit, sed do eiusmod tempor incididunt ut labore et dolore magna aliqua.&lt;/p&gt;" style="text;html=1;strokeColor=none;fillColor=none;spacing=5;spacingTop=-20;whiteSpace=wrap;overflow=hidden;rounded=0;" parent="F2EN1scPjV8PA4508RRB-1" vertex="1">
                    <mxGeometry x="70" y="80" width="320" height="120" as="geometry"/>
                </mxCell>
                <mxCell id="F2EN1scPjV8PA4508RRB-3" value="SGPIO Signal" style="rounded=1;whiteSpace=wrap;html=1;" parent="F2EN1scPjV8PA4508RRB-1" vertex="1">
                    <mxGeometry x="10" y="250" width="120" height="120" as="geometry"/>
                </mxCell>
                <mxCell id="F2EN1scPjV8PA4508RRB-4" value="" style="endArrow=classic;html=1;exitX=1;exitY=0.5;exitDx=0;exitDy=0;" parent="F2EN1scPjV8PA4508RRB-1" source="F2EN1scPjV8PA4508RRB-3" edge="1">
                    <mxGeometry width="50" height="50" relative="1" as="geometry">
                        <mxPoint x="390" y="430" as="sourcePoint"/>
                        <mxPoint x="220" y="310" as="targetPoint"/>
                    </mxGeometry>
                </mxCell>
                <mxCell id="F2EN1scPjV8PA4508RRB-5" value="SGPIO BP MCU" style="rounded=1;whiteSpace=wrap;html=1;" parent="F2EN1scPjV8PA4508RRB-1" vertex="1">
                    <mxGeometry x="220" y="230" width="120" height="160" as="geometry"/>
                </mxCell>
            </root>
        </mxGraphModel>
    </diagram>
</mxfile>